# xmcd
#
# Track frame offsets:
#	150
#	19156
#	33653
#	51480
#	70061
#	87971
#	104361
#	121662
#	138751
#	153554
#	172354
#
# Disc length: 2530 seconds
#
# Revision: 0
# Processed by: cddbd v1.5.2PL0 Copyright (c) Steve Scherf et al.
# Submitted via: EasyCDDAExtractor 11.5.0.1
#
DISCID=9609e00b
DTITLE=Рада Рай - Ты душа моя
DYEAR=2008
DGENRE=Chanson
TTITLE0=Душа
TTITLE1=Мы с тобой два берега...
TTITLE2=Расскажи
TTITLE3=Мотив
TTITLE4=Ты лети, моя душа
TTITLE5=Где ты?
TTITLE6=Бабье лето
TTITLE7=Если бы я знала
TTITLE8=Клен
TTITLE9=Я тобой уже не болею
TTITLE10=Калина
EXTD=
EXTT0=
EXTT1=
EXTT2=
EXTT3=
EXTT4=
EXTT5=
EXTT6=
EXTT7=
EXTT8=
EXTT9=
EXTT10=
PLAYORDER=
